Coordinates
version=1
nRows=43
nColumns=12
inDegrees=yes

Units are S.I. units (second, meters, Newtons, ...)
Angles are in degrees

endheader
time	SC_y	SC_z	SC_x	AC_y	AC_z	AC_x	GH_y	GH_z	GH_yy	EL_x	PS_y
       0.0              -16.89          24.75          27.27          54.04         -16.32          4.715         -29.41          73.53         -87.65          33.31          94.41
  0.002046               -16.9          24.75          27.28          54.04         -16.32          4.714         -29.43          73.53         -87.64          33.31          94.41
  0.004093               -16.9          24.75          27.29          54.04         -16.32          4.714         -29.45          73.53         -87.63           33.3          94.42
  0.006139              -16.91          24.75           27.3          54.04         -16.32          4.714         -29.46          73.53         -87.62           33.3          94.43
  0.008186              -16.92          24.75          27.31          54.04         -16.32          4.713         -29.49          73.53         -87.61           33.3          94.44
   0.01023              -16.92          24.75          27.32          54.04         -16.32          4.713         -29.51          73.53         -87.59          33.29          94.44
   0.01228              -16.93          24.75          27.33          54.04         -16.32          4.712         -29.53          73.53         -87.58          33.29          94.45
   0.01433              -16.94          24.76          27.34          54.04         -16.32          4.712         -29.56          73.54         -87.56          33.28          94.46
   0.01637              -16.95          24.76          27.36          54.04         -16.32          4.711         -29.58          73.54         -87.54          33.28          94.47
   0.01842              -16.95          24.76          27.37          54.04         -16.32          4.711         -29.61          73.54         -87.53          33.27          94.48
   0.02046              -16.96          24.76          27.39          54.03         -16.32           4.71         -29.64          73.54         -87.51          33.27          94.49
   0.02251              -16.97          24.76           27.4          54.03         -16.32           4.71         -29.68          73.54         -87.49          33.26           94.5
   0.02456              -16.98          24.76          27.42          54.03         -16.31          4.709         -29.71          73.54         -87.46          33.25          94.52
    0.0266               -17.0          24.76          27.44          54.03         -16.31          4.708         -29.75          73.55         -87.44          33.24          94.53
   0.02865              -17.01          24.76          27.46          54.03         -16.31          4.708          -29.8          73.55         -87.41          33.24          94.55
    0.0307              -17.02          24.76          27.48          54.03         -16.31          4.707         -29.84          73.55         -87.38          33.23          94.56
   0.03274              -17.04          24.77           27.5          54.02         -16.31          4.706         -29.89          73.55         -87.35          33.22          94.58
   0.03479              -17.05          24.77          27.53          54.02         -16.31          4.705         -29.95          73.56         -87.32          33.21           94.6
   0.03684              -17.07          24.77          27.56          54.02         -16.31          4.704         -30.01          73.56         -87.28          33.19          94.62
   0.03888              -17.09          24.77          27.59          54.02          -16.3          4.703         -30.07          73.57         -87.24          33.18          94.64
   0.04093              -17.11          24.77          27.62          54.01          -16.3          4.701         -30.14          73.57         -87.19          33.17          94.67
   0.04298              -17.13          24.78          27.66          54.01          -16.3            4.7         -30.22          73.57         -87.14          33.15           94.7
   0.04502              -17.16          24.78           27.7          54.01          -16.3          4.698         -30.31          73.58         -87.09          33.14          94.73
   0.04707              -17.19          24.78          27.74           54.0          -16.3          4.697         -30.41          73.58         -87.03          33.12          94.76
   0.04911              -17.22          24.78          27.79           54.0         -16.29          4.695         -30.51          73.59         -86.96           33.1           94.8
   0.05116              -17.25          24.79          27.85          53.99         -16.29          4.692         -30.63           73.6         -86.89          33.07          94.84
   0.05321              -17.29          24.79          27.91          53.99         -16.29           4.69         -30.77           73.6          -86.8          33.05          94.89
   0.05525              -17.34           24.8          27.98          53.98         -16.28          4.687         -30.92          73.61         -86.71          33.02          94.94
    0.0573              -17.39           24.8          28.06          53.97         -16.28          4.684         -31.09          73.62          -86.6          32.98           95.0
   0.05935              -17.45          24.81          28.16          53.97         -16.27          4.681         -31.28          73.63         -86.48          32.95          95.07
   0.06139              -17.51          24.81          28.26          53.96         -16.27          4.677          -31.5          73.65         -86.34           32.9          95.15
   0.06344              -17.59          24.82          28.38          53.95         -16.26          4.672         -31.76          73.66         -86.18          32.85          95.24
   0.06549              -17.67          24.83          28.52          53.94         -16.25          4.667         -32.05          73.68          -86.0           32.8          95.34
   0.06753              -17.77          24.84          28.68          53.92         -16.24          4.661         -32.39          73.69         -85.78          32.73          95.47
   0.06958              -17.89          24.85          28.86           53.9         -16.23          4.653         -32.79          73.72         -85.53          32.65          95.61
   0.07163              -18.03          24.87          29.08          53.89         -16.22          4.645         -33.26          73.74         -85.24          32.56          95.77
   0.07367              -18.19          24.88          29.35          53.86          -16.2          4.635         -33.81          73.77         -84.89          32.45          95.97
   0.07572              -18.39           24.9          29.66          53.83         -16.18          4.623         -34.48          73.81         -84.47          32.32          96.21
   0.07776              -18.63          24.93          30.04           53.8         -16.16          4.608         -35.29          73.86         -83.96          32.17          96.49
   0.07981              -18.92          24.96          30.51          53.76         -16.13           4.59         -36.28          73.91         -83.34          31.97          96.84
   0.08186              -19.28          24.99          31.08          53.71          -16.1          4.568          -37.5          73.98         -82.58          31.74          97.28
    0.0839              -19.72          25.04          31.79          53.65         -16.06          4.541         -39.02          74.07         -81.62          31.44          97.81
   0.08595              -20.29           25.1          32.69          53.57         -16.01          4.506         -40.93          74.17         -80.42          31.07          98.49
